<svg xmlns="http://www.w3.org/2000/svg" viewBox="0 0 258.82 92.91"><path fill="#342d29" d="M153.52 56.83c-12-3.31-23.94-6.77-36-9.86-5.75-1.47-11.61-.54-17.27 1-21 5.87-42.55 9.26-64.24 11.57-3.47.37-7 .73-10.43-.22-5.82-1.55-7.7-6.65-4.05-11.55a27 27 0 0 1 12.35-9c11.93-4.54 24.34-5.2 36.89-4.59a134.85 134.85 0 0 1 20.32 2.35 30.31 30.31 0 0 0 14.76-.88c15.33-4.44 30.72-8.68 46.09-13a6 6 0 0 0 3.43-1.82c-5-2-10.23-2.64-15.26-3.74-25-5.45-50.07-10.76-75.67-12.81-18-1.45-35.92-2.07-53.73 1.54-3.49.71-6.9 1.85-10.7 2.89-.15-3.57 2.53-3.64 4.27-4.17C14.22 1.54 24.46.42 34.8.07c24.23-.81 48.19 1.87 72 6 18.68 3.21 37.26 7 55.89 10.46a27 27 0 0 0 12.8-.68c17.4-5.08 34.79-10.17 53.11-11.08a73.66 73.66 0 0 1 20.82 1.81c4.93 1.17 8.61 3.83 9.29 9.15s-1.86 9.36-6.39 12c-6.17 3.65-13 4.95-20.07 5.16-16.31.5-32.09-3-47.87-6.43a33.41 33.41 0 0 0-20.1 1.54 392.53 392.53 0 0 1-38.22 13 2.84 2.84 0 0 0-2.12 1.61c6.24 2.4 12.8 3.41 19.21 4.94 2.59.62 5.27.92 7.79 1.72 9.53 3.06 18.58 2.93 28.07-1.22a53.14 53.14 0 0 1 24.86-4.53 27 27 0 0 1 9.22 2c5.81 2.59 6.59 9.38 1.59 13.34a16 16 0 0 1-7.25 3.11c-10 1.85-19.95 1-29.82-.66a21.16 21.16 0 0 0-14.33 2.27 321.11 321.11 0 0 1-34.3 16.19c-.76.3-1.64.41-2.13 1.81a156.71 156.71 0 0 0 22.81 5.94c4.88 1 9.87 1.45 14.81 2.09 1.81.24 3.72.21 4.2 3-8.79.9-17.28-.45-25.67-2.26-5.83-1.26-11.59-3-17.28-4.8a23.09 23.09 0 0 0-14.17-.24 160.91 160.91 0 0 1-36.73 6.75c-6.49.37-9.75-1.13-10.5-4.48-.7-3.16 2.37-7.68 6.89-10.1 8.74-4.69 18.15-4.47 27.27-2.42 7.83 1.76 14.54.4 21.56-2.85 11-5.1 22.25-9.59 33.39-14.33Zm97.21-43c-21.51-6.33-41.37-1.2-61 6.34 9.21 2.79 18.62 3.52 28.06 3.89 8.9.35 17.6-.68 25.76-4.53 2.61-1.23 5.45-2.34 7.18-5.7ZM23.07 52.06c3.09 2.71 3.09 2.71 20.59-1.1 6.82-1.5 13.65-3 20.43-4.66s13.6-3.53 20.39-5.35c-16.68-4-33.11-5.36-49.27.79a24.3 24.3 0 0 0-12.14 10.32Zm43.9 35.54c12.11-.53 22.42-4.33 32.73-8.08-13.99-4.82-28.83-1.55-32.73 8.08ZM184.9 54.19c10.85 4.39 26.76 2.74 29.56-3.06-5.81-5.03-20.28-3.53-29.56 3.06Z"/></svg>