<svg xmlns="http://www.w3.org/2000/svg" viewBox="0 0 1085.47 189.81"><path fill="#6e615b" d="M630.65 123.47c9.11 2.38 17.49-3.85 18.45-13.08 1.15-11.15-4.16-15.38-12.48-14.72-5 .4-8.79-1.68-11-6.88-1.52-3.65-4.88-6.3-8.36-8.33-2.35-1.37-2.28-2.71-.4-4.16a39.52 39.52 0 0 1 6.6-4.44c3-1.47 5.58-3 7.67-5.94 2.79-3.92 7.06-2.54 10.34-.39 6.24 4.11 12.61 8.2 16.63 14.84a9.67 9.67 0 0 1 .67 2c2.7-2.62 2.07-4.59 1.43-6.46a21.33 21.33 0 0 0-10.6-12.71 43.87 43.87 0 0 1-7.34-4.22c-2.56-2-4.71-4.94-2.16-8.16s1.86-7 2.63-10.45c.53-2.46-1.66-3.35-3.74-4 4.9-4.61 14.27-5.06 21.67-1.46 2.12 1 4.8 4.48 5.87-1.25.37-2 2.18-.43 3.23.12 10 5.27 15.5 13.41 15.45 24.87 0 3.61.86 4.72 4.12 2.39 2.31-1.65 4.76-3.07 7.1-4.67s4.48-4.08 5.15 1.22c.21 1.62 1.82 1 2.92.95 2.33 0 4.65-.11 7-.1 4.25 0 5.49-1.62 4-5.53a21.35 21.35 0 0 0-2.49-4.31c-4.18-5.94-3.83-12.54-2.85-19.21.38-2.59 2.34-1.85 3.91-1.56 4.08.76 7.82 2.54 12 3.78-2.57-3.37-5-6.81-7.73-10.08-2.14-2.61-1.43-3.66 1.65-4.17 4.63-.76 9.35-1.69 13.85-.16 3.31 1.13 4.43-.07 5.5-2.81 1.46-3.7 2.46-7.27.13-11-.51-.82-1.27-1.82-.55-2.74.89-1.14 2.23-.66 3.23-.17 10.86 5.33 20.72 11.77 24.06 24.39.79 3 1.77 3.55 4.34 2.3a11.37 11.37 0 0 1 2.38-.75c5.23-1.28 6-.52 5.06 4.69-.68 3.77-1.29 7.55-1.87 11.34-1 6.49-3.32 12.2-9 16a5.89 5.89 0 0 0-1.35 1.46c-.16.21-.09.57-.14 1 2-.29 2.88-2.14 4.35-3.09 2.25-1.44 4.55-3.74 7.15-3.15 6.55 1.5 9.47-2.56 12.91-6.81a28.08 28.08 0 0 1 12.6-8.74c7.46-2.62 15.6-3.32 22.78-8.14-3.14 7.28-3.16 14.64-3.15 22 0 2.83-.1 4.44 3.75 4.5 5.72.08 8.39 5.59 6.72 12.39-.25 1-1.51 2.24 0 3.05 1.05.56 1.75-.58 2.41-1.31 11.28-12.49 26-18.83 41.78-23.19 9-2.48 18.15-4.42 26.72-8.23 7.16-3.18 13.34-7.54 16.54-15.13.48-1.15.72-3 2.5-2.48 1.49.43 1.52 2.13 1.37 3.44-.77 6.57-.29 13.4-4.47 19.65 2.72.44 4.29-1 5.94-1.78 5.89-2.94 12-5 18.65-5.11 10.85-.2 13.53 4.3 8.33 14.06 1.77 1.21 3.46.19 5.14-.13 10.64-2 21.24-4.2 32.19-2.19a36.6 36.6 0 0 1 15.77 7.13c2.69 2.07 2.29 3.81-.75 5.07-4.39 1.82-9.24 2.49-13.8 5.12 2.3 2.39 5 3.21 7.5 4.41 7.94 3.85 15.52 8.49 24 11.24 16.32 5.3 32.17 4.57 47.23-4.22a24.47 24.47 0 0 0 11.79-16.05c.32-1.33.16-3.6 2.16-3.37 1.78.2 1.48 2.34 1.62 3.76 1.93 19.77-9.71 40.56-27.9 49.79-14.59 7.41-29.92 11.13-46.37 9-1-.12-2.16-.63-2.77.35-.82 1.31.07 2.62.74 3.71 4.16 6.78 10.2 11.8 16 17 1.56 1.39 4.69 2.17 4.19 4.45-.62 2.86-4 2.49-6.33 2.87-16 2.53-30.8-.52-43.93-10.4-.88-.66-1.66-1.71-3.41-1.24.18 4.49 2.07 8.59 3.29 12.84.36 1.22 1.35 2.68 0 3.65-1.23.84-2.56-.06-3.72-.74-7.8-4.55-13.72-11-18.62-18.47-4.63-7.09-8.59-14.74-15.8-19.77a52.16 52.16 0 0 0-15.91-7.52c1.57 4.58 3.14 8.51 4.25 12.57a99 99 0 0 1 2 10.3c.21 1.31.3 2.78-1 3.65s-2.6-.17-3.52-1c-10.14-9.3-23.1-11.32-35.82-14a7.09 7.09 0 0 0-1.8.21c1.85 5.42 5 9.91 8 14.39 2.63 3.84 2.4 4.9-2.08 6-10.61 2.68-20.13-.91-29.21-5.75-8.22-4.38-16.1-9.4-24.19-14-10.92-6.25-22.81-8.09-35.18-7.34-1.53.09-4-.11-4.33 1.57-.26 1.21 1 3.57 2.21 4.14 8.84 4.18 10.07 15.79 19.69 19.72-8 .36-13.89 7.8-22.35 5.41-2.59-.73-3.68.53-3.25 3.28a4 4 0 0 1-3.2 4.92c-3.3.79-2.6 2.35-.92 4.05 5.35 5.42 3.57 11.7 2.07 17.83-.74 3.05-2.8 4.71-6.36 4-4.35-.82-9 .46-13.1-2.29-1.76-1.17-2.13.88-2.6 2a5.64 5.64 0 0 1-3.83 3.63c-1.28.33-2.8.05-2.6-1.37.49-3.47-1.61-5.15-3.9-6.91-1.81-1.4-1.93-3.47-1.64-5.49.8-5.5-1.9-9.23-6-12.32-6.17-4.66-13.25-6.64-20.93-7.19 8 3.64 13.37 9.83 16.94 17.61 2.69 5.88 1.57 8.09-4.7 9.55-1.81.42-1.8 1.54-2 2.9-1 6.64-2.34 7.5-8.13 4.81-2.93-1.36-3.28 1.28-4.55 2.52s-2.2 3.37-4.23 3.1-1.09-2.47-1.53-3.78c-.9-2.66-3.13-3.74-5.37-4.89-6.75-3.47-7.32-5.08-4.25-11.66 2.38-5.1 1-8.6-4.57-11.08-6.48-2.85-13.38-3.93-20.4-4.45-12.12-.91-24.36-.65-36.31-3.08-10.56-2.14-20.83-4.84-30.09-11.24-9.58-6.62-21.19-8.62-32.55-10.59-3.37-.59-6.78-1.5-10.88-.79a6.69 6.69 0 0 0 5.75 2.27c5.58-.6 9.9 2.41 14.44 4.76a8.77 8.77 0 0 1 2.87 2.69c.92 1.33 2.18 3 1.17 4.56s-2.78.43-4.17.11c-6.81-1.52-12.36 1.85-17.92 4.75-5.75 3-11.29 6.42-16.88 9.74-2.72 1.61-4.78 1.18-7.06-1.09a46.78 46.78 0 0 0-8.19-6.51c-10.44-6.52-21.24-3.51-26.65 7.51-1.29 2.61-2.38 2.37-4.58 1.41-7.22-3.16-13.6-7.75-20.46-11.51-5.93-3.25-11.9-6.12-19-4-.93.28-2.06.55-2.73-.47s-.06-1.93.5-2.77c3.63-5.54 9.07-8.06 15.37-9 2.59-.39 5.35.09 8-1.94-1.58-1.29-3.27-.88-4.74-.62-14.79 2.54-29.14 5.67-42.29 14-10 6.32-22 8.37-33.81 9.81-12.73 1.55-25.64.76-38.3 3.12a44.32 44.32 0 0 0-12.07 3.9c-5.51 2.79-6.46 5.84-3.75 11.35s2.07 7.81-3.59 10.7c-3.23 1.65-7 2.65-6.85 7.51 0 1.69-1.58 1.55-2.57.7a33.71 33.71 0 0 1-3.77-4c-1.19-1.43-2.06-1.54-3.7-.36-3.68 2.65-7 1.13-7.45-3.57-.3-3-.47-4.55-4.37-4.72-4.31-.18-4.23-4.14-3.23-7.34 2.87-9.1 8.92-15.44 17.45-19.64-9.47.83-18.18 3.37-24.68 11a2.9 2.9 0 0 0-.8 1.25c-.95 6.44-2.08 12.76-6.64 17.91-.65.73.45 2.83-1.51 3.11a3.48 3.48 0 0 1-3.79-1.92c-1.73-4.78-4.32-3.58-8-2.28-3.48 1.22-7.54.85-11.36 1a3.3 3.3 0 0 1-3.3-2.62c-1.85-6.87-4.63-13.86 1.78-20a17.6 17.6 0 0 0 1.68-2.39c-4.07-.87-6.77-2.64-6.39-7 .12-1.3-1-2.58-2.16-2.14-6.3 2.32-11.11-2.31-16.65-3.41-2-.4-5.28-.07-5.8-2-.71-2.67 3.15-2.1 4.41-3.73a56.67 56.67 0 0 0 4.05-5c2.51-4.2 5.34-8 9.65-10.58 1.65-1 3.6-2.86 3.08-4.7-.46-1.66-3.14-1.5-4.88-1.58a66.44 66.44 0 0 0-40.44 10.45c-10.06 6.49-20.11 13.15-31.93 16.26-5.39 1.41-10.79 1.93-16.26.29-3.28-1-4.58-2.32-2-5.56a70.31 70.31 0 0 0 8.74-15.17c-13.51 2.36-26.41 4.39-36.92 13.3-1.29 1.09-2.59 3.28-4.62 1.76-1.65-1.22-.95-3.33-.77-5.16.68-7.18 3.44-13.78 6.53-21.51-10 3.53-18.51 7.28-24.18 15.52-4.06 5.9-8 11.9-12.14 17.73a47.45 47.45 0 0 1-14.03 12.54c-1.26.77-2.77 1.91-4.15.93-1.59-1.12-.3-2.7.1-4.07 1.39-4.75 2.75-9.51 4.54-15.75-12.12 12.21-25.91 15.96-41.07 15.89-3.62 0-7.25-.89-10.86-1.5-1.28-.21-2.85-.53-3.17-2s1.17-2.23 2.22-3c5.59-4 10.06-9.22 14.86-14.08a12.74 12.74 0 0 0 2.36-3.2c.79-1.57 2.67-3.28 1.57-4.94-1-1.45-3.11-.18-4.71-.09-21.72 1.08-41.59-4.11-57.61-19.19C3.39 93.05-.86 78.91.13 63.28c.09-1.29-.05-3.12 1.52-3.33 1.79-.24 1.71 1.67 2 2.9 2.57 10.54 9.63 16.84 19.5 20.29 14.4 5 28.81 5.3 42.93-.86 8.85-3.86 17.45-8.28 26.16-12.46.73-.35 1.78-.52 1.8-1.51 0-1.22-1.15-1.57-2.05-1.87-3.62-1.22-7.35-2.19-10.91-3.55-4.06-1.56-4.12-2.64-.73-5.25 8.67-6.68 18.5-8.7 29.21-7.59a164.17 164.17 0 0 1 19.72 3.15 23.53 23.53 0 0 0 3.36.26c.07-.6.26-1 .13-1.21-1.81-3-4.53-6.13-2.05-9.57s6.72-4.11 10.83-3.86c8.28.51 15.86 3.45 24.1 8.24-2.22-5.84-3.82-10.5-4.13-15.44a57.89 57.89 0 0 1-.05-7 2.69 2.69 0 0 1 1.24-2c.84-.4 1.49.35 1.84 1.2 5.29 13 17.14 16.91 29 20.55 9.87 3 20 5.17 29.62 9a70.37 70.37 0 0 1 25.27 16.64c1.18 1.24 2.06 3.12 4.34 3 .76-1.94-.57-3.55-.73-5.31-.54-5.79 1.83-9.39 7.52-10.22 2.9-.42 3.62-1.83 3.54-4.31-.2-6.46.71-13.06-2.68-19.08-.48-.84-1.05-1.94-.14-2.75s1.87 0 2.63.55c4 3 8.69 4.4 13.39 5.28 9.44 1.77 16.48 7 22.06 14.37 2 2.6 3.91 3.56 7.14 3 6-1.12 9.67 3.49 13.91 6.68 1.07-1.5-.22-2.09-.81-2.47-6.65-4.33-8.73-11-9.73-18.32-.47-3.46-1.1-6.91-1.82-10.33-.8-3.78.69-5 4.27-4.13a8.71 8.71 0 0 1 2.39.69c3.57 2.14 4.61 1 5.79-2.91 3.63-12 13.2-18.34 23.86-23.35 1-.48 2.36-.91 3.19.31.64 1-.05 1.93-.62 2.74-3.17 4.5-.63 8.62.88 12.78.68 1.89 2.11 1.71 3.7 1.16 4.58-1.56 9.19-.94 13.82-.13 3.5.62 4.41 2 2 4.92s-4.69 6-7.79 10c4.88-1.68 8.61-3 12.4-4.24 3.05-1 4.09-.08 4.57 3.49 1 7.58-.46 14.15-5 20.22-1.15 1.52-2.44 3.45-1.11 5.52 1.21 1.88 3.28 1.15 5.06 1.21 2 .06 4 0 6 .18s3.61.24 3.62-2.58c0-3.06 1.55-2.12 3.16-1 3 2.11 6.11 4 9.08 6.18 2.48 1.78 3.8 1.9 3.7-1.78-.33-11.66 5.09-20 15.06-25.68 2.13-1.2 4.28-3.26 4 1.79-.24 4.12 2.11 1.48 3.3.73 6.83-4.32 14.1-4.7 21.62-2.44 2.14.64 3.76 1.22.71 3.76-4.14 3.43-1.86 8.46 0 11.77 2.49 4.37 1.21 7-1.88 9.44-2.58 2.06-5.62 3.54-8.42 5.32-7 4.48-10.47 10.95-9 17.87 4.54-5.25 8.73-10.32 14.19-14.05 2.49-1.71 4.95-3.47 7.92-4.14 2.7-.62 5.75-.69 7 2.23s3.59 4.16 6.24 5.24a23.76 23.76 0 0 1 3.56 1.8c2 1.23 4.39 2.43 5.13 4.6 1.09 3.22-2.81 3-4.14 4.6-2.18 2.69-5.11 4.68-6.46 8.14-1.72 4.44-5.85 5.27-9.93 5.27-5.16 0-9.77.69-11.93 6.14-2.54 6.4-.76 12.18 3.3 17.26 3.6 4.48 8.41 6.14 14.26 4.95-.37-2-2-2-3-2.71-5.53-4.23-6-10.56-1.13-15.46 4.66-4.7 10.33-7.88 16.2-10.67 9.48-4.5 19-9 28.66-13 14.71-6.18 29.92-8.53 46.08-9.18 24.26-1 45.46 6.59 66.39 16.95 8.34 4.12 17.37 6.91 24.59 13.14 8.59 7.54 8.22 13.87-1.7 20.42ZM515 127.33l1.38 1.76c1.62 4.07 2.39 8.14-1.2 11.58s-8 2.65-12.17 1.1-8.26-3.57-12.72-4.39c-2.08-.38-4.1-.54-5.91 1.61 9.83 1.44 12.64 2.52 21.37 7.67 4.45 2.62 9 5.06 13.53 7.52 1.5.82 2.8 1.24 4.37-.46 12.38-13.43 22.37-14.62 35.54-2.94 4.94 4.38 8.1 3.62 12.88.82 6.86-4 13.44-8.66 21.14-11.18 2.51-.83 5.44-.17 8.21-2.1a7.61 7.61 0 0 0-7.15-.64c-4.25 1.45-8.42 3.12-12.66 4.59-4.44 1.55-8.75 1.43-11.69-2.71-2.76-3.89-2.1-7.87 1.06-11.41q.15-.33.33-.66c4.44-2.89 9.48-3.19 15.2-2.83-7.05-4-12.62-1.31-18.11 1.93l-1.55 1.36c-4.25 1.74-5.82 5.7-7.78 9.35-1.38 2.56-.85 4.59 1.22 6.68 1.73 1.72 5.58 4 3.5 6-1.84 1.75-4-2.34-5.82-4-7.77-7.27-26-6.83-33 .91-.87 1-1.53 3.31-3.25 1.83-1.34-1.16.07-2.79 1-3.92a25.66 25.66 0 0 1 3.2-3.14c1.29-1.08 2-2.23 1.15-3.88-1.75-3.37-2.93-7.16-6.79-8.91-.75-.71-1.5-1.42-2.26-2.12-7-4.44-12-5.07-17.74-2a24 24 0 0 1 14.72 2.58Zm141.19 20.46c-17.4-6.32-16.21-7.59-18-9.29-5.42-5.11-13.52-7.52-14.78-16.64-1.83 11 16.6 25.09 32.81 25.9a51.72 51.72 0 0 0 7.26 1.65c9.77.83 19.58 1.33 29.35 2.2a102.73 102.73 0 0 1 28.54 6.29c7.77 3.06 11.43 11.94 7.47 17.68-.81-11.5-2.57-14.43-9.42-15.53 2.16 3.08 4.11 6.19 3.87 10.09-.08 1.29 0 3.09-1.75 3.07-1.26 0-2.75-1.9-3 1-.19 2 1.06 3 2.57 3.89 2.16 1.25 4.64 2.18 6.35 3.88 2.06 2.08 3.5 2.68 5.66.33a3.8 3.8 0 0 1 5.4-.69c3.77 2.68 4.45.41 4.09-2.71-.5-4.36.77-6.38 5.5-5.54 2.77.49 3.17-1.48 2.36-3.47-3.2-7.92-8.15-14.25-17.57-18.19 9.27 7 10.22 8.35 9.33 13.93-2.33-6.59-6.47-10.25-13.36-12.9 3.83 3.66 7.67 5.5 9 9.68a28.9 28.9 0 0 1-5.42-4c-1.74-1.5-3.37-3.17-5.66-3.73 10.93 10.57 13.93 16.07 10.87 21.37-1.48-4.65-2.71-9.1-6.14-12.52a41.26 41.26 0 0 0-26-12.45c-16.46-1.44-32.9-2.24-49.33-3.3ZM353.13 101.7a47.46 47.46 0 0 0 11.23 10.21 82.92 82.92 0 0 0 24.29 14.08c-9.22-6.26-18.33-12.67-25.46-21.27-11.83-14.28-16.78-23.46-15.55-29.54 6.63 14.87 15.23 26.91 26.56 36.93 10.9 9.64 30.56 19.69 40.37 19.83a106.81 106.81 0 0 1-28.84-16.62c-2.67-2.13-4.9-4.54-5.8-7.9-.32-1.2-.87-2.66.94-3.39 3.46-1.39 3.46-1.41.93-4.19-3.08-3.4-7.16-5.39-10.92-7.84-6-3.94-10.67-9-12.73-16.1-.95-3.26 0-4.8 3.72-3.83 2.1.54 4 2 6.76 1.68-2.31-5.56-4.79-10.39-9.09-14.08-.92-.79-2.7-1.57-1.56-3.09.91-1.23 2.06.19 3.07.57 1.94.73 4.23 2.56 5.07-1.05.94-4 3.17-7.32 4.88-10.91a17.3 17.3 0 0 0 1.61-11.63c-.51-2.27-1.56-3.11-3.87-2.39-6.57 2-12.16 5.22-15.47 11.64-2.71 5.26-1.75 10.67-1.26 16.13.24 2.57 1.88 5.27-.24 8.06-.54-.62-1.05-.94-1.15-1.35-3.37-13.53-1.91-26.09 7.42-37.1 1.61-1.9 3.06-3.93 4.51-6 .73-1 1-2.06-.36-3-4.31-3-11.87.22-12.74 5.44-.33 2-.57 4-1.87 5.61-.62.79-1.36 1.82-2.41 1.33-1.27-.59-.52-1.74-.09-2.56a10.69 10.69 0 0 0 .81-7.79c-1.2-4.87-4.38-9.09-4.54-14.41-11.48 15.11-8.2 30.94-3.3 47-5.73-10.15-8.26-20.8-6.57-32.34-4.47 15.4-.23 29.58 5.9 43.44-10.44-18.85-15.29-37.88-.76-57.46-7.32 2.77-10.89 8.53-14 14.58-3.51 6.74.84 12.88 2.06 19.42-3.3-2.53-4-6.61-6.86-9.1-2-1.73-4-4.61-6.7-3.35s-.53 4.22-.33 6.34a79 79 0 0 0 1.93 10.29 14.05 14.05 0 0 0 5.12 8.38c5.28 3.85 8.7 9.1 11.73 14.7 6.39 11.98 13.1 23.72 23.56 32.63ZM98.28 65.79c1.84 2.21 2.24 4-1.07 5.29-8.12 3.1-15.52 7.68-23.3 11.48-12.92 6.31-26.33 9.12-40.7 6.51-11.46-2.08-21.59-6.43-29.23-16.37-1.61 24.5 32.21 49.45 62.86 46.93a67.51 67.51 0 0 1-31.91-9.71c-11.11-6.78-21.36-18.36-21.8-25.12 1.85.77 2.21 2.53 3 3.9 7.37 12.54 17.58 17.37 31.85 15 7.48-1.23 14.37-4.18 21.15-7.41 14-6.66 27.89-13.46 42.63-18.39 35.43-11.86 70.92-14.82 106.61-1.1.62.24 1.34 1 2.27-.12-34.65-15-70-18-106.41-7.64 5.26-3.51 11.25-4.41 17.13-5.43 37-6.41 71.74.37 104.63 18.21-1.95-2.92-4.81-4.56-7.76-5.92q-12.72-5.83-25.55-11.4a56.87 56.87 0 0 0-23.86-4.71c-4.5.08-9 0-13.5 0-1.12 0-2.69.07-2.86-1.37-.19-1.6 1.4-1.63 2.5-1.65 14.52-.27 29-.58 42.49 6.41 9 4.66 18.87 7.54 27.53 13 .23.15.77-.18 1.74-.45a151 151 0 0 0-29.58-16.39c-8.24-3.31-16.79-6.41-25.6-5.93-7.27.4-13.39-1.49-19.56-4.51-1-.5-2-1.53-3.4-1.05.46 1.79 2.92 2 2.61 4.11-1.88.36-2.64-1.23-3.79-2-3.59-2.52-7.34-4.62-11.84-4.9-1.64-.1-3.61-.37-4.35 1.55-.68 1.76.59 3.17 1.78 4.36 2.25 2.27 5.42 2.39 8.22 3.37 2.3.81 4.9 1.24 5.77 4.05-3.59-1.55-7.29-2.44-10.86-3.69-6.69-2.33-8.27-6-5.47-12.42-3 0-6.23 0-7.39 3s1.76 4.73 3.69 6.46a21.53 21.53 0 0 0 9.71 4.92c1 .22 2.09.61 1.83 1.89s-1.46 1.3-2.44 1.13c-3.28-.57-6.55-1.23-9.81-1.9-11.4-2.34-22.7-5.48-34.53-4.71-7 .45-13.63 2.07-19.74 7a47 47 0 0 0 12 3.64Zm329 26c-.83.3-2.05.43-2.2-.39-1.09-6.05-4.79-11.75-1.62-18.36 3.32-6.89 8.69-11.11 15.38-14.27 2.3-1.09 5.61-2.94 4.63-5.71-1.1-3.12-4.42-1.74-7-.89-.38.13-.89-.13-1.31-.2-.36-1.94 1-2.65 2.2-2.92 3.65-.84 3.77-3.09 2.92-6.06a10.06 10.06 0 0 1-.18-3.47c.21-2.77-1.26-2.47-3.15-2-2.78.73-4.15 3.57-6.9 4.73.41-3.24.41-3.24 3.48-6.77-8.54.28-14.78 5.29-17.17 13.77-.29 1 0 2.79-1.73 2.38-1.49-.35-1.1-1.92-.8-3a28 28 0 0 1 1.94-5.12c1.1-2.11 1.65-4.54-.12-6s-3.27.91-4.58 1.94c-7.75 6.11-10.64 19.18-6.51 28.7 1.08 2.48 2.7 4.92.1 8.19-1.28-8.62-7.66-12.26-14.11-15.8-1.63-.9-3.62-3.33-4.29 1.12-.37 2.48-2.47 1-3.55.3-4.76-2.91-9.77-1-14.67-.9-2 0-2 1.21-1.1 2.7 2.8 4.66 4.42 10.15 9.52 13.17.82.49 1.79 1.31 1.15 2.43s-1.76.78-2.71.48c-2.45-.77-4.88-1.63-7.86-2.63.43 1.33.58 2 .82 2.56 3.08 7.61 9 12.16 16.32 15.29 4 1.71 7.26 4.14 8.33 8.64.94 4-.8 6.13-4.8 6.21-1 0-2.13-1.16-3.57.64 12.91 10.4 26.31 19.39 43.36 21.41-16.65-9.11-26.24-23.64-32.49-40.94-2.45-6.78-5.85-13.09-12-17.44-.79-.56-1.59-1.35-.47-2.67 4.9 1.26 7.37 5.28 9.9 9.12 4.7 7.15 6.92 15.48 10.76 23.06a57 57 0 0 0 23.53 24.74c-2.33-3-5-5.61-7.43-8.47-18.49-21.8-11.17-52.84 2.55-67.5.66-.71 1.5-1.83 2.45-1.11 1.37 1 .09 2-.54 2.94-.38.54-.89 1-1.32 1.5a49.24 49.24 0 0 0 6.62 70.46c5.05 4.12 10.55 7.19 17.74 7.41-20.42-9.83-34.16-32.95-26.48-44.07.79 15.07 2.77 21.56 8.58 27.28-2.18-10.84-.1-19.91 9.53-26 2.4-1.51 5.14-2.81 8.23-.45-13.59 5.42-18.8 14.27-15.1 25.14 2.81 8.26 12 14.41 19.6 12.35-10.41-1.61-16-7.54-17.66-17-1.93-10.75 3.93-17.64 14.66-17.62 2.83 0 5.74.26 7.72-2.44 2.27-3.09-2.27-3.66-2.46-5.69 1-.9 1.83-.55 2.65-.46 3.3.37 9.49-3.23 9.27-5.8-.33-3.72-4.12-3.84-6.7-5a10 10 0 0 0-4.91-.53c-10.14 1-16.36 7.36-20.82 15.89-.83 1.6-1.15 3.45-2.91 4.5-1.92 1.15-2.76.71-2.74-1.5.59-1.19 1.25-2.36 1.75-3.58 3.11-7.57 7.23-14.3 14.79-18.22 1.44-.75 2.93-2.57 4.64 0 .72 1.1 2.18.48 3.14-.23s.82-1.77.22-2.66c-.79-1.18-2-1-3.16-.74-9.54 2.02-21.26 15.94-21.43 25.56Zm480 22c-12.09-12.19-27.77-14.25-43.61-15.86a39.65 39.65 0 0 0 6.21 1.21c13.46 2.35 25.33 8.77 37.41 14.64-.49 3.58-2.28 1.09-3.28.55a205.07 205.07 0 0 0-23.84-10.54 40 40 0 0 0-19.1-2.75c-1.95.21-4.94-.08-5.34 1.69-.51 2.23 2.6 2.92 4.15 4.28s4.14.85 5.79 3.4c-5.87.71-8.89-4.34-13.51-5.1 6.75 7.12 15.6 9.87 24.69 12.22-9.85 1.16-17.39-4.63-25.8-8.85.52 2.54 2.37 3.21 3.83 4.07 3.16 1.85 6.47 3.44 9.68 5.2.8.44 2.48 1.44 1.66 1.92-3.48 2 .12 2.21.68 2.59 3 2 6.91 1.55 10 3.62-4.75 1.34-8.87-1.24-13.24-2.26 6.39 4.83 13.22 8.59 21.14 10.1-14.23 0-25-9.76-37.93-13.51 11.09 7.7 22.06 15.53 35.52 18.57a24.46 24.46 0 0 0 8.94.32c2.32-.33 3.16-1.27 1.76-3.69-3.16-5.48-5.66-11.38-9.22-16.58-4.25-6.22-7.39-14.46-17.48-13.21a1.24 1.24 0 0 1-1.47-1c-.12-1.07.73-1.44 1.49-1.69a10.28 10.28 0 0 1 10.31 2.15c3.57 3.13 7.78 4.22 12.14 5.41 7.56 2 15.27 4.08 21.15 9.64 5 4.74 11.81 6.25 17.62 12a55.34 55.34 0 0 0-11.14-29.17c-5.77-7.85-13.23-13.2-23.86-11.28-1 .17-2.24.64-2.56-.62-.41-1.66 1.27-1.66 2.27-2 8-2.82 14.55.52 20.14 5.46a59.42 59.42 0 0 0 18.8 10.83c13.49 5.13 24.63 13.12 31.33 26.39 1 1.89 1.76 4.06 4.14 5.89-2.42-12.23-6.92-22.32-16.9-29.2-.54-.37-1.45-1-1.38-1.33 1-4.64-3.12-4-5.32-5.15-2.4-1.25-5.16-1.14-7.82-1.38-1.53-.14-4.11.41-4-1.72s2.63-1.33 4.15-1.38a20.91 20.91 0 0 1 4.45.48c12.86 2.42 21.83 10.66 28.79 20.84 8.4 12.3 19.24 20.61 33.65 24.07 3.67.88 7.53 2.27 12.43.66-7-5.31-9.15-12.52-11.58-19.62a27.53 27.53 0 0 0-5.54-9.41c-6.12-6.92-12.31-13.72-21.44-17 3.2-.77 5.83.41 8.36 1.93 4.05 2.44 7.14 6 10.45 9.25a25.21 25.21 0 0 0 10.39 6.71c16.87 5.08 31.83 0 46.1-8.69-10.45 1.31-20.32-.86-29.77-4.86-9.2-3.89-18.18-8.28-27.26-12.45-25.43-11.66-51.83-19.06-80.07-18.76-14.18.14-28 2-41.22 7.37a22.73 22.73 0 0 0 5.24-1.1 55.42 55.42 0 0 1 25.65-1.87c20.25 3.18 38.49 11.59 56.25 21.28 8.63 4.72 17.32 9.38 24.09 16.75 1.41 1.54 3.07 3 2.86 5.5-4-4.6-8.15-9-13.28-12.07-19.24-11.46-38.84-21.89-60.75-27.7-16.77-4.45-32.45-2.11-48.93 4.65 7.72-.91 14.45-1.87 21.22-2.48 19.41-1.76 38.16.24 55.93 9.1 16.88 8.43 31.1 20.47 45.53 32.29 1.09.9 3.29 1.91 2.25 3.34-1.45 2-2.94-.26-4.09-1.15-7.74-6.05-15.36-12.26-23.08-18.33-25.44-20-54.2-26.35-85.88-20.91 7.91 2.81 7.91 2.81 10 5.6-9.43-4.53-18.32-3.13-27.5-1.64 1.08 1.46 2.34 1.09 3.42 1.2 16.7 1.71 33 4.68 47.21 14.51 1.72 1.19 5.51 2.18 3.95 4.62-1.38 2.14-3.67-.94-5.3-2-11.57-7.62-31.39-13.86-42.71-13 5.91 1.34 11.11 2.34 16.22 3.7 8.22 2.21 16.41 4.62 23.13 10.18 1.43 1.22 4.22 2.19 2.51 5.13Zm-599 24c-2.26.55-4.52 1.08-6.77 1.65-2 .52-3.89 2.22-7.54.69 14.14-5.17 26.8-10.89 41.16-5.6-13.56-5.3-27.16-3.73-40.79-.93 18-8.22 35.38-3.93 52.85 1.92-2.75 1.35-2.75 1.33-5.11 1.44-18.7.86-35.26 6.4-47.79 21.27-4.09 4.85-4.91 9.82-1.47 16.12 2.84-4.18 5.59-8.37 10.23-10.66-.88 3.8-3.94 6-5.87 8.93-1.75 2.67-1.33 3.85 2 3.9 5.91.09 10.66-3.17 11.63-8.78 2.07-11.92 9.27-19.63 19.72-24.74s22-4.54 33.3-5c1 0 2.44 0 2.5 1.91-1.35 1.16-3.05.87-4.66.91-4.33.09-8.67 0-13 .23-12.71.79-23.95 4.7-31.05 16.16-4 6.45-6.2 13.38-3.65 21.57 3.69-4.71 6.57-8.82 6.77-14.58.12-3.67 2.85-6.69 5.88-9a39.51 39.51 0 0 1 16.66-7.66c10.92-2 21.91-.68 32.89-.6 7.7.06 15.41-.43 23.13-.68-5.15-2.35-10.31-3.6-15.42-5-16-4.48-31.55-10.68-47.77-14.65-16.59-4.06-32.64-4.6-47.69 5.17-1.51 1-3.27 2.27-5.89 1.23 2.65-3.52 6.62-4.2 9.82-6a44.45 44.45 0 0 1 25.38-5.77c13.47.95 26.17 4.71 38.91 8.68 16.84 5.24 33.36 11.77 51 14.08 10.31 1.34 20.67 1.56 30.61-2.63-23.11 4.91-44.73-.48-65.6-9.77-21.5-9.58-43.23-18.35-66.23-23.7-8.16-1.89-16.31-3.31-24.71-3.09-1.48 0-3.39.88-4.51-1.59a9.91 9.91 0 0 1 5.74-1.21c6.13.57 12.27.83 18.34 2.18a347 347 0 0 1 72.08 25c16.95 7.93 34.6 12.83 54.07 10.21-20.84-2.1-39.76-8.41-56.92-19.7A121.28 121.28 0 0 1 328.57 73c-4.23-8.26-12.75-10.28-19.16-15.32-1.71-1.34-4.21-.65-6.32 0-1.05.31-2.65.12-2.78 1.6-.12 1.31 1.25 1.84 2.26 2.39 3.63 2 7.85 2.87 11 5.83l-.51.6c-4.77-.9-8.61-4.11-13.33-5.24 1.77 1.38 3.71 2.47 5.58 3.67 1 .62 2.24 1.4 2 2.64-.32 1.62-1.89 1-2.94.89-6.32-.61-9.84 3.12-12.58 8-1.43 2.57-1.26 4.07 2.27 4.76a36.31 36.31 0 0 0 16.3-.61c1.77-.44 4.71-.89 4.13 1.59-1.28 5.45 2.81 5.4 5.61 6.2a106.39 106.39 0 0 1 22.3 8.67c3.41 1.86 6.56 4.09 8.48 7.52s.48 6.73-2.42 7c-7.24.59-13.44-4.51-20.72-3.76a1.79 1.79 0 0 1-1.28-.71c-6.63-8.65-16-12-26.25-13.76-.1 0-.13-.53-.19-.8 1.82-1.49 4.1.87 6.29-.81-3.48-2.67-7.87-1-11.46-3.12 3.22-1.67 6.61.4 10.54-1.43-7.28-1.89-13.56.13-20.79.28 3-2.72 5.85-2 8.42-2.88a2.46 2.46 0 0 0-2.68-.65c-3.32.49-2.85-2.66-4-4.2-1.65-2.21 1-1.72 1.71-2.37 2.68-2.52 1.69-4.45-1.11-6 1.64-1.67 3.62.31 5-1.23-.31-2.16-3.73-1.5-3.74-4.54 2.86.67 5.55 3.87 8.55 1-1.54-2.62-5.37-2.64-6.49-6.06 2.94-.15 4.1 2.72 7.11 2.82-1.94-2.09-3.68-3.83-4.6-6.11-.42-1-1.39-2.1-.44-3.21.81-1 1.84-.25 2.76 0 .77.23 1.55.76 2.47-.24-6.37-10.52-16.06-15.33-28.15-16.3 5.27 5.26 15.08 6.42 15.38 17.58-5.33-9.23-6.68-10.49-11.82-11.33 2.07 5.66 7.54 9.09 9.37 14.8-7.54-4.51-10.57-12.79-15.88-19.13 3.25 9.5 1.16 21.2 11.86 27.34-5.26-.51-10.57.37-13.54-5.64A5 5 0 0 0 257 61.1c-2.84 2.24-3.1 5.44-1.47 8.58a10.41 10.41 0 0 0 6.07 4.9c3.28 1.19 6.51 2.54 9.67 4s6 3.14 6.39 7.42c.23 2.64 2.22 4.54 5.08 5.55 3.13 1.09 6.53 2 8.94 4.92-2.38 1.53-3.88-.14-5.4-.8-10.61-4.58-21.48-8.11-33-9.37-7.46-.81-14.65-.38-21.2 3.76-1.22.78-3.1 1.2-2.86 3.06s2.16 2.41 3.75 2.8a32.39 32.39 0 0 0 12.9.15c9.42-1.52 18.85-2.09 28.33-.57 1.67.27 3.43.22 4.6 2.83a78.23 78.23 0 0 0-25.52-1.09c-9.45.93-19 3.87-28-2.08 6.19 3.79 11.25 10.16 19.83 7.67 1-.29 2.59-.61 3.05.82s-1.17 1.75-2.14 2.2c-1.87.86-4.16 1.19-4.81 4.34 8.52-2.74 16.35-7 25.4-4.62-8.05 2-16.44 2.83-23.55 7.7 6.35-.87 12.41-3.09 19-2.91 11 .29 21.84-2.31 32.86-1.84 6.47.28 9.75 1.39 12.93 5.27a42.14 42.14 0 0 0-27.48-2.47c8.8 4.57 19.48-1.54 28.88 5.17-5.29 1.09-9.4-1.9-14.78-.65 3.64 1.06 6.73.31 9.68 3.52-5.89-.7-10.9-2.48-16.07-.17 3.15 1.28 6.89-.47 9.47 3.18a11.34 11.34 0 0 1-2.9.41c-11-1.91-18.83 2.09-23.48 12.27a2.48 2.48 0 0 1-.6.8c-3.63 3.39-1.08 4.23 2 4.56a27.52 27.52 0 0 0 4.94-.32c.78-.06 2.2-.51 2.1.45-.48 5 2.68 1.68 3.9 1.58 3.09-.24 6.15-1.13 6.86 3.35 1 6.09 2.66 7 8 3.77 6.44-3.92 12.43-8.63 19.8-10.91-6.37.18-12.08 2.8-18.06 4.56 1.94-3.16 5.58-3.28 8.18-5.11 6.4-.9 12.64-3.16 19.29-1.84-6.69-1.8-12.82-1.1-19.3 1.85Zm445-30c-4.41 2.74-8.84 5.33-14.29 5.43-3.66.06-5.56-2.06-4.48-5.57 1-3.18 3.33-5.28 6.05-7.05 7.77-5.08 16.32-8.19 25.28-10.46 2.5-.63 6.28-.8 5.79-4.85s1.7-3.59 4.19-3c3.41.86 6.87 1.86 10.35 1.09 2.77-.62 7.12.78 8-2.33 1-3.46-2.31-6.31-4.93-8.69a9.93 9.93 0 0 0-6.39-2.44c-1.55-.09-3.67 1.24-4.56-.65s2.06-2.22 2.36-4.21c-6.34 2.56-12.46 4.94-15.36 11.84.4-5.39 3.75-8.29 7.93-10.46 3.54-1.84 7.2-3.48 10.76-5.29.68-.35 1.58-1.06 1.65-1.68.14-1.29-1.23-1.28-2.1-1.62-4.53-1.77-8.5-.66-12.07 2.38-1.52 1.29-2.88 3.66-4.48 3.81-6.4.59-8.15 5.71-10.54 10.07-11.06 20.17-26.19 36.42-45.94 48.28-15.69 9.41-32.74 14.78-50.84 17.1a86.37 86.37 0 0 0 41.57-5.9c11.41-4.65 22.6-9.87 34-14.43 20.79-8.29 42-15.07 64.5-16.88 2.85-.23 5.76-.46 8.37 1.17-.61 1.64-1.74 1.36-2.67 1.36-25 0-48.06 8.34-70.85 17.4-15 6-29.37 13.54-45.11 17.59a95.5 95.5 0 0 1-42.28 1.59 39.77 39.77 0 0 0 14.5 3.24c14.73.72 28.8-2.54 42.69-6.89 17.63-5.52 35-11.82 53.2-15.56 16.12-3.31 30.29.89 43.82 9.07.71.42 1.42 1 .62 2.1-2.29.45-4.1-1-5.84-2.06-13.5-8.22-27.76-8.9-42.9-5.63-23.11 5-44.7 15.06-68.38 19.59 2.65 1.4 5 1.12 7.31 1.26 13.47.82 26.94-.12 40.41 0a41.15 41.15 0 0 1 27.15 9.79c3.08 2.6 5.41 6 5.3 9.82-.15 5.48 3.58 8.31 6.42 12.81.33-1.71.55-2.5.62-3.31 1.21-14.32-8.33-28-22.31-32.32-8.28-2.55-16.75-2.51-25.26-2.53-2 0-4.3.61-6.18-1.52a7.43 7.43 0 0 1 5.38-1.37c5.65.28 11.36.28 16.93 1.14 17.61 2.73 30.55 10.92 34.12 29.92.85 4.55 4.52 6.86 9 7.43 1.73.22 4.1 1 5.16-.67 1.2-1.86-1.18-3.12-2-4.64-1.38-2.51-4.74-3.87-4.74-8.09 4.92 3.1 7.49 7.38 10.35 11.63 3.36-7.14 2.87-11.36-1-15.87-11-12.83-24.8-19.75-41.62-21.12-3.78-.31-7.85.11-11.95-2 18-5.83 35.38-10.26 53.29-2-13.47-3.29-26.86-4.17-40.14 1 14.46-5.73 27 .58 39.77 5.92-10.83-1.82-21.12-7.48-32.63-4.75 10.15-1.07 19.3 1.75 27.87 6.88-6.34-1.36-12.33-4.19-19-4.28a53.27 53.27 0 0 1 18.13 10.12 15.53 15.53 0 0 0 5 2.26c2.82.94 4.41-.11 4.84-3.16.89-6.25 1.26-6.42 7.66-5 1 .22 3.13 1.22 2.93.07-1.1-6.19 2.9-1.89 4.29-2.07 2.3-.29 5.33.29 6.48-1.63 1-1.69-2-3.05-2.87-4.77a7.21 7.21 0 0 0-1.39-1.43v-.07c-4-12.16-14.83-9.66-25.12-10.33 3.61-3.28 7.1-2.21 10.41-3.1-5.28-2.7-10.11-.08-15.57 0 2.51-3.25 6.14-2 9.47-3.89-5.37-.57-9.56 1.75-14 1.15.08-2.16 1.95-1.89 2.81-2.76 8.43-2 17.38 1.24 25.66-2.61-2.19-.31-4.32-.75-6.46-.88-6.67-.43-13.3-.48-19.17 3.52-2.82-.39-2.44-1.42-.4-2.46a23.22 23.22 0 0 1 12-2.77c16.55 1 33.25.59 49.49 4.82.39.1 1 .18 1-.78-7.21-3.92-15.52-4.77-23.27-7.37 8.91-1.48 16.8 2.18 25.1 4.9-.44-3-2.76-3.12-4.42-4-1.07-.59-3.06-.75-2.49-2.48s2.3-.75 3.54-.76a9.7 9.7 0 0 1 2 .31c7.76 1.54 11.7-4.76 17.2-8-5.48 3.81-11.43 4.07-17.75 3.1a116.36 116.36 0 0 0-26.97-1.24c-2.68.21-5.34.69-8.79 1.15a4.9 4.9 0 0 1 3.88-2.58c7.27-.93 14.52-1.53 21.89-.5 6.56.92 13.18 2.25 19.86 1 1.73-.32 4.14-.41 4.63-2.38.56-2.28-2-2.78-3.43-3.65-6.56-4-13.73-4.69-21.21-3.78a106.8 106.8 0 0 0-33.89 9.9c-1.34.64-2.78 1.91-4.61.12 2.51-2.79 5.79-3.63 8.86-4.63s5.28-2.9 5.5-5.8c.29-3.85 2.81-5.36 5.43-7.11 3-2 6.34-2.93 9.65-4a11.5 11.5 0 0 0 6.64-5c2-3.35 1.62-6.63-1.5-8.87a5.1 5.1 0 0 0-7.77 1.9c-2.89 5.69-7.88 5.32-13.14 5.52 11.29-6.26 9.1-18.16 13-28.93-6.64 7.26-9.42 16-17 20.69 1.39-6 7.58-8.94 9-15-5.57 1.58-8.37 5.62-10.26 12.07-1.4-4.44.18-6.56 1.77-8.58a19.42 19.42 0 0 1 6.69-5.13c2.18-1.11 4.76-1.87 5.71-5.15-12.05 2.31-22.32 6.17-28.32 17.37 2.31 1.09 4.06-1.69 5.27.19s-.7 3.4-1.71 4.82c-1.32 1.86-2.88 3.55-4.94 6l9.29-5.18c-1.27 4.06-4.91 4.12-6.48 6.68 3.25 2.78 5.87-1 9-.82-.61 2.73-3.89 2.43-4.79 4.5 2 1.29 4.12-.61 5.93 1-4.75 2.7-4.77 3.3-.35 6.62.49.37 1.67.78.86 1.25-2.35 1.39-1.62 6.64-6.63 4.78 2.29 1.61 5.34.61 7.3 3.48-6.61-.4-12.68-1.94-18.68-.08 2.82 1.17 5.9-.12 9.53 1.37-4.3 1.53-8.63.64-12.81 3.51 3.16.82 5.33-1.12 7.28.59-1.08 1.8-2.74 1.36-4.14 1.58a36.31 36.31 0 0 0-13.19 4.34c-2.81 1.66-4.45 4.5-6.85 6.48s-5.12 5.7-8.47.94c2.94 1.08 5.33-.05 7.08-2.25a29.3 29.3 0 0 1 11.64-9.1 7.33 7.33 0 0 0-7.81 1.89c-3.64 3.29-7.37 6.35-11.01 9.5ZM134.56 94.62c-13.28 6.32-26.88 12.17-36.28 24.3 1.75-5.45 5.66-9 10-11.92a225.33 225.33 0 0 1 51.5-26.21c11.14-3.92 22.59-7 34.7-6.33 3.92.22 7.69 1.41 11.63 1.51a78.2 78.2 0 0 0-12.09-3.07c-31.46-5.2-61.69-.46-91 11.44-9.42 3.82-18.65 8-27.79 12.49-12.43 6.06-25.06 11.42-39.5 10.58 9.37 6.45 19.63 9.42 30.54 10 10.14.58 19.08-2.2 26-10.15a34.94 34.94 0 0 1 10-8.2 13 13 0 0 1 9.08-1.48c-13.12 4.52-21.51 12.93-27.32 23.56-4.13 7.57-4.8 17-12.51 22.85 19.26-.59 34.48-8 44.78-24.13a53.09 53.09 0 0 1 18.47-17.87 30.39 30.39 0 0 1 16.69-4.44c1.12 0 2.7-.06 2.72 1.47s-1.54 1.54-2.66 1.61c-3.83.22-7.59.53-11.22 2.07-21.08 8.91-25.81 27.79-29.65 48.1 7.65-4.67 12-11.38 16.61-17.85s8.51-13.08 14.56-18.23a43.64 43.64 0 0 0-17.11 18.43c-1.29 2.51-2.38 5.18-4.45 7.19-1.23 1.19-2.4 3.56-4.39 2.25-1.6-1.06-.26-3.07.28-4.58 1.16-3.3 2.75-6.48 3.57-9.85 1.87-7.63 6.6-13.38 11.84-18.79 1.44-1.48 3.21-3.09 6.28-3.06-16.11 13.56-15.42 20.63-19.71 34.1 1.84-3.07 3.2-5 4.19-7 4.96-10.45 12.96-18.03 22.96-23.62a53.22 53.22 0 0 1 9.54-4.32c6.38-2.08 12.26-5 17-9.94a22 22 0 0 1 20-6.82c1.44.21 3.63.51 3.38 2.22-.31 2.21-2.43 1-3.67.7-3.79-.94-7.23 0-10.69 1.42-4.64 1.88-8.06 5.33-11.14 9.06-6.78 8.2-10.58 17.66-11.79 29 5.9-3.47 11.79-5.75 16.16-9.44 6.68-5.63 14.16-8.56 22.2-10.77 4.55-1.25 8.86-2.69 12.44-6 2.62-2.42 6-2.74 9.42-2.1 1.06.2 2.58.42 2.28 2-.23 1.25-1.56 1.08-2.49 1-6-.59-9.4 2.91-12.58 7.38-4.57 6.41-7.78 13.58-11.85 20.25-3 4.9-2.71 5.62 3 6a21.44 21.44 0 0 0 3 0c9.83-.8 32-11.78 39-19.34a32.73 32.73 0 0 0-12.38 5.7c-3.77 3-8.29 3.83-12.44 5.71-6.58 3-9.31 3.38-12.16 1.86 14.87-4.81 17.9-6.29 22-10.8-10.75 4.41-10.75 4.41-14.21 3.17 1.69-1.78 4.13-1.05 6-2 1.48-.72 4.41-1.14 4.18-2.18-1.05-4.7 3-4 5-5.23 4.09-2.42 8.6-4.23 11.75-8.73-20.93 11-21.21 11.07-26.41 9.5 21.37-7.71 22.41-8.25 24-13-4.66 1.88-7.77 7-13.31 5.5 2.38-1.46 5.29-1.84 7.2-4 .82-.94 2.7-1.41 2.13-3-.5-1.38-2.17-1.35-3.47-1.52-7.82-1-15.22.58-22.48 3.4a203 203 0 0 0-21.88 9.79c-1.09.58-2.33 1.79-3.49.19a2.8 2.8 0 0 1 .46-4 38.44 38.44 0 0 1 3.84-3.17 58 58 0 0 1 17.79-7.74c5.94-1.62 11.94-3 17.91-4.5-15.66.71-30.16 4.94-43.09 13.93-1.11.78-2.65 2.61-3.83 1.11s1.09-2.36 2-3.36a12.11 12.11 0 0 1 2.38-1.8 85.19 85.19 0 0 1 33-12.37c5.79-1 11.63-1.6 17.44-2.39-8.78-2.27-17.46-3.32-26.2-.17 2-3.18 5.71-2.65 9.27-4.66-3.12-.33-5.1-.53-7.07-.75-25-2.72-48.43 1.16-69.78 15.23-11.16 7.35-21.26 16-31.74 24.26-1.41 1.09-3.33 3.86-4.84 1.88-1.36-1.8 1.73-3.07 3.14-4.28a403.24 403.24 0 0 1 35.36-27.05Zm399.56-.71c-2.32-4-5.91-5.62-9.59-7.22-1-.45-2.46-1.07-1.8-2.49s2-.6 3.07-.24a24 24 0 0 1 8.85 5.48c1 1 2.4 2.64 3.47.27a10.38 10.38 0 0 0-.43-9.64c-1.58-2.83-3.92-4.08-7.44-3.8-22 1.77-40.84 12.41-61.08 21 3.06 2.41 6.35 3.66 7.91 6.78.75 1.5 2 3.48.17 4.45s-2-1.5-2.71-2.62c-.95-1.51-1.73-3.2-3.91-3.23-.33 1.51 2.28 2.34.67 4.14-1.83-1.46-3.53-3-5.44-4.27-2.1-1.39-4.34-1.6-6.44.25-.91.8-1.32 1.57-.13 2.35 7.09 4.7 7.54 11.6 6.45 19.06-.16 1.08-.49 2.89 1.39 2.3 3.11-1 6.5-1.88 6.95-6.15.18-1.69-.8-3.61.91-5.34 2.16 2.1 1 4.79 1.44 7.14.58-1.15.76-2.31 1.2-3.36.56-1.31 1.94-2.09 2.38-.33.91 3.64 3.28 2.5 5.48 2.19 3.79-.53 7.56-1.45 11.37-1.63 12.45-.57 27.23 2.64 33 17.21 1.07 2.67 2.71 2.87 5.1 2.49 5.09-.81 10.26-2.07 15.34-.6 3.17.92 4.72.41 6.15-2.7 4.32-9.46 12.34-13.94 22.22-15.87 7.58-1.48 14.91-.31 22.27 1.28 1.41.31 3.66 1.44 4.11-.07 2.21-7.44 3.06-.65 4.26.6 1.36-2-.43-4.66 2.43-6.59-1.18 6.62 1 10.71 7.85 11.79-.16-2.27-.34-4.37-.45-6.48-.31-5.62 1.13-10.55 5.76-14.18.86-.68 2.58-1 2.09-2.38s-2.19-2.05-3.75-1.88c-3.35.36-5.83 2.27-7.9 4.81a.73.73 0 0 1-1.18.08c-.95-1.49 1.39-2.25.6-3.74-1.77.66-2.5 2.15-3.34 3.59-.6 1-.81 3.11-2.59 2.2-1.39-.71-.73-2.41-.17-3.61.48-1 1.34-1.91 1.83-2.95 1.09-2.31 6-2.08 4.67-5.1-.78-1.82-4.52-2.36-6.94-3.48l-.45-.2c-16.17-7-32-15-50-16.65-8.66-.8-12.89 4.43-9.29 13.86a32.56 32.56 0 0 1 2.88-4 15.63 15.63 0 0 1 10.69-4.76c1.56-.07 4.09-.61 4.28 1.36.23 2.31-2.38 1.73-3.84 1.76a12.64 12.64 0 0 0-9.54 4.73c-1.05 1.2-3.14 2.52-1.86 4.12 1.62 2 3.3 0 4.59-1.1a24.58 24.58 0 0 1 16-6.15c1.1 0 2.63-.36 2.66 1.34 0 1.26-1.34 1.24-2.3 1.38-3.47.53-6.95 1.05-10 2.88-1 .62-3.16 1-2.32 2.59s2.53.68 3.87-.13c4.8-2.88 10.16-4 15.63-4.56 1.57-.17 4.09-.51 4.25 1.43.19 2.39-2.41 1.54-3.87 1.68-3.5.33-7.08.25-10.3 3.19 4.08 1.13 7.5.51 10.93-.13 2.62-.48 5.24-1 7.88-1.31 1.28-.15 3.14-.18 3.33 1.39.23 1.89-1.74 1.5-2.94 1.74-1.87.37-4-.23-5.57 1.51 4 1.6 5.63 1.59 10.5.24 1.67-.46 3.88-1.84 5 .23 1.2 2.29-2.61 1.33-2.81 3.11 8.41 4 8.42 4 9.69 8.18-2.7-4.08-6.65-.85-10-2.12-35.4-13.33-70.74-12.1-106 .95-1.68.62-4.23 2.84-5.18.53s2.68-2.12 4-3.38c.16-.16.15-.49.22-.75-3.27 0-5.08 3.06-8.32 4.54.68-2.94 2.37-4 4.05-5.07 1-.61 2.84-1.53 2.75-1.82-1.69-5.39 2.27-2.85 4.19-3.05 2.44-.26 4.88-.42 8-.69-2.31-2-4.65-2.32-6.72-3.16-.8-.33-1.65-.68-1.4-1.72s1.23-1 2.05-.88c2.53.27 4.76 1.43 7 2.43 1.68.72 3.92 2.8 5.11 0s-2-2.14-3.3-2.91c-.84-.48-2.17-.58-1.71-1.93s1.65-1 2.58-.71a27.41 27.41 0 0 1 4.14 1.68c2.22 1.13 4.31 2.56 6.59 3.54a3.76 3.76 0 0 0 4.81-1.61c1.25-2.08-.8-3-2.12-3.8-1.83-1.09-3.89-1.81-5.84-2.74-.72-.34-1.66-.66-1.36-1.75s1.22-1.06 2-1a9.72 9.72 0 0 1 6.41 2.48c4.77 4.21 9.95 6.65 16.86 5.7Zm97.74-9.89c-.85 2.73-4 3.33-2.56 5.9 1.31 2.32 3.54 2.86 6 2.84 1.34 0 2.67-.08 4-.05 5.8.14 9.35 2.62 11.44 8 4.72 12.08-2.46 23.82-16.46 26.71 6.41 2.11 15.17-3 18.93-10.84 2.17-4.54 1.81-9 .45-13.62-2.18-7.36-7.5-11.23-16.07-12.95 5.15-2.24 8.25-.71 10.93 1.44 8.78 7 10.61 16.16 7.39 26.76 4-4.1 6.13-8.94 8.08-13.88s2-10 2.15-14.87c2.54 19.94-7.36 33.25-24.49 43.06 4-.06 6.81-1.53 9.5-3.2 17.9-11.13 26.19-29.76 22.47-50.51-1.68-9.38-5.37-17.81-11.86-24.92-.73-.81-2-1.89-.86-2.94s2.08.45 2.72 1.27a77.47 77.47 0 0 1 5.29 7.24c10.79 17.44 12.33 44.8-5.16 62.47-1.83 1.84-3.75 3.6-5.63 5.4a2.82 2.82 0 0 0 2.61-.39c13-8.16 20.73-20.41 26.15-34.36a64.85 64.85 0 0 1 8.32-15.88c2-2.68 4.22-5.36 8.13-5.56 0 .71.14 1.21 0 1.33-9.24 6.85-12.45 17.32-16.69 27.32a63.94 63.94 0 0 1-18.92 25.37c-3.08 2.47-6.42 4.58-9.62 6.87 16.09-2.56 38.42-14.54 42.53-22.49-2.81.32-6 1.41-7.62-1.82s.39-6.13 2.33-8.62 5.13-3.64 8-5a28.62 28.62 0 0 0 15.53-17.42c-4 .61-7.18 4.25-13 2.46 6.87-3.88 9.31-9.6 12.27-15 1.13-2 1-3-1.53-3.18-5.11-.37-10.26-1.74-15 1.52-1.26.86-2.72 1-2.76-1.12-.09-4.44-2.29-2-3.72-1.11-6.36 3.83-13.22 7.22-14.57 16-2.39-3.21-.77-5.66.2-8.15 4-10.35 1.11-23.55-6.62-29.12-1.31-.95-2.9-3.07-4.71-1.53-1.65 1.4-1.29 3.43-.21 5.46 1.22 2.31 2.63 4.83 1.21 8.12-6.94-12.59-11.06-15.93-18.67-15.34 1.36 1.89 4.18 3 3.43 6.49-2.7-1.32-4-4-6.64-4.64-1.41-.34-3.38-1.32-3.22 1.26.25 4.05-3.22 9.57 3.91 11.32.25.06.34.79.5 1.22-1.47 1-2.63-.4-3.91-.23s-3.19-.48-4 1.29.41 2.95 1.55 3.87a45.15 45.15 0 0 0 5.35 3.61c14.86 8.85 16.63 16.38 12 30.05-.58 1.7-1.46 3.66-3.56 3.6a4.36 4.36 0 0 1-4.31-3.36c-2.44-7.35-7.82-12.28-14.53-15.71-5.67-2.89-11.22-2.17-16.59 1.24-2.53 1.62-2.43 2.63-.42 4.83 2.84 3.17 5.96 4.63 10.54 3.49Zm241.21-10.05a153.15 153.15 0 0 1 38.73-6.18c27.32-.81 53.11 5.89 78.12 16.31 13.22 5.51 25.67 12.72 39.18 17.57 16.94 6.07 32.75 2.33 41.68-14.74.41-.78.53-2 2.83-1.56-11.49 22.22-30.52 31.74-54 34.43 33.8-.82 61.1-19.56 61.81-47.93-2.31 3.32-4.38 6.15-7.29 8.1-18.85 12.62-38.7 13-59 4.24-9.17-3.95-17.94-8.78-26.94-13.13-1.93-.93-3.46-1.88-2-4.71-3.41 1.5-4.36 4.29-6.09 7.15-.18-6.28 7.87-12.45 17.13-13.8l-1.7 2.84c1.24-.32 2-.46 2.8-.74 1.32-.5 3.49-.12 3.61-2 .1-1.65-1.86-2.12-3.14-2.8a35.6 35.6 0 0 0-16.29-4.13c-12.15-.28-23.76 2.87-35.5 5.22-3.41.68-6.88 1.84-11.51.07 3.82-1.66 6.87-2.57 9.46-4.21 3.26-2.07 8.21-4.2 7.1-8.56s-6.2-3.42-10-3.42c-.2 0-.39.24-.65.42 2.31.63 4.9.9 5.48 3.7a6 6 0 0 1-3.52 6.62c-4.55 2.23-9.45 3.75-15 5.88 1.7-3.55 4.16-3.69 6.34-4.25a24.05 24.05 0 0 0 7.46-2.77c1.62-1.06 2.87-2.51 2.43-4.55-.53-2.38-2.69-2.17-4.48-2.16-4.06 0-7.2 2.28-10.47 4.29-1.5.91-2.57 2.91-5.1 2.52 1.36-3.1 4.52-3.71 6.91-6.82-4.82 2.39-8.75 4.1-12.45 6.22-7 4-14.7 1.46-22 2.85-17.62 3.37-32.93 11.56-48.45 22.15 3.13-.22 4.45-1.6 6-2.38 19.63-9.62 39.18-19.59 62.13-17.08 2.16.24 6.12-1 6.05 1.38-.08 3.08-4 1.7-6.24 1.73-9.81.12-19.74-.66-29.15 3a321.43 321.43 0 0 0-31.53 13.88c-2.65 1.36-5.25 2.94-7 5.67 19-10.15 38.9-17.25 60.31-20 21.68-2.74 56.24.86 63.63 7.94-34.48-10.97-67.37-9.03-99.69 3.74Zm-174.09 51.44a10.44 10.44 0 0 0 2.24-.88c7-4.61 14.6-7.6 20.33-14.81 5.39-6.78 12.92-12.25 16.61-20.29 8.61-18.77 23.72-33.52 32.19-53.09a13.56 13.56 0 0 1-1.15 7.57 40.89 40.89 0 0 1-7.92 12.64c-11.63 12.08-16.11 28.52-25.86 41.74a96.57 96.57 0 0 0 16.86-22.8c3.4-6.29 6-13.55 11.79-17.78 9.05-6.62 9.85-16 11-25.63.39-3.22-1.08-3.41-3.5-2.4-3.28 1.37-5.15 4.07-6.86 7-1.06 1.83-1.57 4.23-5.3 5.5 2.63-7.17 6.93-13.23 3-20.23-3.45-6.17-7.42-11.73-14.53-14.57 7 8.36 11.18 17.56 10.47 28.69-.78 12.21-5.57 26.2-10.88 28.93 7.57-14.23 11.28-28.6 6.31-44.1 2 12.15-.69 23.35-6.81 34 5-16.27 8.42-32.3-3.33-48.82-.14 5.47-1.69 9.12-3.33 12.75a14.09 14.09 0 0 0-.67 9.28c.29 1.28 2.47 2.91.44 3.78-1.83.8-2.72-1.51-3.31-3a29.63 29.63 0 0 1-1.12-4.84c-.57-2.71-2-4.64-4.92-4.85s-6.45-1.17-8 1.21c-1.69 2.55 1.63 4.65 3.24 6.46 8.63 9.75 12.19 20.82 9.55 33.71-.43 2.11.06 4.56-2.62 5.92a56.41 56.41 0 0 1 .55-10.66c1.55-11.61-3-19.48-13.79-23.59-5.48-2.09-7.1-.88-7.36 5.12-.25 5.59 3.32 9.65 5.37 14.32 2.81 6.44 2.81 6.43 9.15 4.45.18-.05.5.33 1.3.89-4.48 5-9.56 9.64-11.15 16.62 2.22.49 3.69-1 5.44-1.26 1.59-.26 3.35-1.39 4.72 0s.63 3.49 0 5.2a23.68 23.68 0 0 1-8.08 11.2c-4.2 3.27-8.68 6.17-13 9.23-2.21 1.55-4 3.36-4.08 6.72 3.73-1.78 4.09.1 3.43 2.79-.79 3.21-2.84 5.56-5.41 7.56-9.71 7.57-20.06 14-31.66 18.19 32.3-7.62 55.17-27.06 70.07-56.55-7.19 21.19-22.06 35.83-39.42 48.68Zm-236.7-4.83c.23 11.29-10.88 13.53-16.28 20.12-4.45 5.43-13.72 6.63-21.73 7.33-14.93 1.33-30 1.27-44.8 3.22-14.52 1.9-27.39 7.74-31.53 24.09 0 .15-.58.16-1.57.41-.63-7.81 4.27-12.75 9.23-18.38-3.62 1.19-4.72 4.6-8.21 5.46 1-4.09 4.94-5.14 6.84-8.32-6.16 1.22-8.11 6.22-11.06 10.25-.54-4.46 2.82-7 4.69-10.21-6.38 3.18-10.28 8.4-12.75 14.76-.77 2-1 4.47 2.24 4 5.24-.79 6 1.71 5.47 6.08-.34 2.91.61 4.89 3.94 2.35 1.47-1.12 3.49-1.57 4.54-.08 3.15 4.45 5.33 1.77 7.94-.52 1.61-1.41 3.69-2.25 5.45-3.5s2.88-2.88 1.77-5.12c-.26-.51-.2-1.66-1.6-1-2.47 1.19-2.49 1-2.74-1.33-.36-3.51 1.85-6.37 3.06-10.2-7.85 3.67-8.45 9.89-7.72 16.73-4-6.82-1.35-14.63 5.7-18.07 9.59-4.69 20-5.94 30.44-7.1 13.23-1.47 26.64-1.12 39.71-4 9.85-2.2 18.44-6.72 25.08-14.49 2.89-3.5 5.52-7.16 3.89-12.48Zm381.45-45.4c3.08.08 4.32-1.44 5.79-2.37 15.58-9.78 31.48-19.14 50.18-21 7.69-.79 12.63-3.8 15.8-10.48.34-.7 1.11-2.06 1.54-1.53 3.07 3.8 2.41-1 2.49-1.32.44-1.65 1.26-3.46-.42-5.66-7.49 8.73-17.94 11.73-28.21 15-4.91 1.57-9.92 2.83-14.85 4.37-12.93 4-25.57 8.7-35.43 18.58-.9.91-3.16 1.8-1.66 3.43 1.17 1.27 2.78 0 3.94-1a110.56 110.56 0 0 1 20.92-13.54c5.78-2.94 11.54-6.07 18.19-6.95-12.93 6.69-26.5 12.08-38.33 22.47Zm-675.32-35c7.87 9.41 7.88 9.4 20.44 11.76 17.35 3.24 32.67 11.09 47.18 20.78 1.48 1 2.83 2.57 6.14 2.36-12-9.94-25-16-38-22.09 15.85 3.78 29 13 42.91 22.5-.3-3.4-1.9-4.27-3-5.37-9.88-9.58-22.38-14-35.15-18.07-15.35-4.87-31.88-7.18-44.64-20.92 1.34 5.63 1.36 10.08 5.7 14.37-.63-1.86-.87-2.45-1-3.06s-.45-1.54-.63-2.29Zm806.57 111c-3.84-16.45-6.12-32.31-20.61-42.25 9.67 7.72 11.4 19.49 15.55 30 .5 1.26 1.71 3.06 0 4-1.5.82-2.74-.76-3.72-1.86a20.49 20.49 0 0 1-2.35-3.21c-2.89-4.86-5.37-10-9-14.37-3.18-3.89-8.06-7.65-12.35-8.87 13.31 10.27 17.7 27.17 32.43 36.55ZM221.1 83.79c-24.18-11.74-46.66-7.25-68.91 2.27 22.35-8.11 45.09-6.01 68.91-2.27ZM77.47 131.33c-5 5.48-10.45 10.44-15.84 15.75 15.68 5.44 44-4 47.44-15.14-10.62 9-22.58 14.16-36.47 14.38-1.46 0-3.23.85-4.12-.72-1-1.76.92-2.6 1.88-3.59 3.01-3.09 6.08-6.11 7.11-10.68Zm898.78.72c7.13 13.32 30.57 18.4 44.54 16.14 2.46-.4 2.77-1.8.74-3.23-5.28-3.74-9-9-13.91-14.6 1.67 5.84 5.47 8.69 8.63 12 .77.83 2.07 1.61 1.55 2.88s-2 1.25-3.09 1.26a56.7 56.7 0 0 1-15.74-2.24c-8.5-2.33-15.69-7.01-22.69-12.21ZM275.99 88.7c-3.35-4.12-28.8-11.13-34.3-9.44 10.99 6.27 23.43 4.96 34.3 9.44ZM844.13 79c-7.27-1.2-30.76 5.6-34.08 9.88 11.15-4.52 22.86-3.72 34.08-9.88Zm-221.34 34c1.19-1.06 2.11-2.31 3.34-2.89 2.52-1.2 4.68-.2 5.78 2.22s.69 4.62-1.93 5.91a2.18 2.18 0 0 1-3-.85c-.63-1-.51-2.06 1-1.95 1.28.09 2-.19 1.78-1.53a2.34 2.34 0 0 0-1.19-1.43c-1.1-.49-1.84.23-2.48 1.08-2.09 2.79-1.2 6.11 2 6.64 3.82.65 5.83-2.11 7.39-4.83s0-5.15-2.15-7c-2.49-2.09-5.18-2.16-7.7 0a6.51 6.51 0 0 0-2.84 4.68Zm283.79 7.79c-5.25-4.67-16-8.61-23.75-8.88 6.35 8.22 15.7 6.88 23.75 8.88Zm-582.3-23.76c5.3 6.15 11.4 11.06 19.52 12.89-5.2-6.23-11.16-11.37-19.52-12.89Zm-102.62 1c-14.46 1.27-28.48 3.94-40.14 13.53 13.21-5.17 25.67-12.42 40.18-13.57Zm351.62 33.19c-.45 5.93 2 9.21 6.34 8.15 5.14-1.26 10.09-3.26 15.13-4.93-4.16-1.8-8.23-1.63-12.52-3.27 2.6 4.44-1 4.54-2.81 5.38-5.07 2.3-4.61-2.65-6.14-5.33Zm-393.14-11c7.66-1.56 16.42-.42 21.54-8.25-7.63 1.57-15.22 3.24-21.52 8.26Zm580.45-22.87c-7.61 1.16-16.78 7.69-18.92 13.31a41.41 41.41 0 0 0 18.94-13.3Zm-251 42.33c-.88-3-7-3.23-1.15-8.12-3.25 1.24-4.06 3.74-6.28 2.45l1.73-2.62-12.86 2.15c6.08 2.4 11.57 5.68 18.55 6.15Zm-49-30.15c-2.63-2.51-4.84-3.54-7.25-1.52-2 1.65-4.68 3.16-3.7 6.43a8.61 8.61 0 0 0 5.74 5.79 3.34 3.34 0 0 0 4.23-1.76 4.44 4.44 0 0 0-.71-5.12c-.86-1-2.05-1.43-2.91-.1-.74 1.14-.06 1.82 1.21 1.95s1.65 1 1.1 2.09a2.3 2.3 0 0 1-3 1.16c-2.88-.8-3.68-5.09-1.42-7.41 1.78-1.75 4.01-1.25 6.73-1.5Zm353.85-28.44.41 1.37 21.77-4.92c-9.21-2.96-15.72.14-22.16 3.56Zm-541.86 1.62c-6.47-4.46-13.19-7.9-22.61-5.38 8.08 2.99 15.66 2.96 22.61 5.38Zm50.05 10.91c-4-2.9-10.09-1.88-10.87-8.06-.12-1-1.31-.51-2 0-2.57 1.79-2.46 4.57.31 6.41 3.71 2.46 7.9 1.17 12.56 1.65Zm26.83 15.68c-3-8-10.48-10.09-17.44-12.86 6.03 3.97 11.63 8.5 17.44 12.86Zm414.3-16a85.66 85.66 0 0 0 8.75-.07c1.93-.21 4.24-.69 4.81-3s-.89-4-3.23-5.39c-.05 6.73-6.18 5.83-10.33 8.41Zm-432.4 15.32c-6.14-8.33-12.26-12.64-17.64-11.68 7.77 1.63 10.17 9.25 17.64 11.63Zm206.28-32.83c4 6.54 3.92 11.94 1.57 17.44-.39.91-.85 2 .21 2.68.8.52 1.52 0 2-.79.88-1.41.75-16.32-.32-17.55-.46-.58-1.37-.78-3.46-1.78Zm213.85 21.83c-5.88 2.19-12 4.13-15.11 9.92l.89 1.16Zm-35.79-8.95c4.28-3.4 8.73-6.76 9.6-13.57-5.49 3.44-6.43 9.27-9.6 13.55Zm-69.42-17.1a28.32 28.32 0 0 0-8.17-4.9c-1.52-.62-3.19-1.21-4.57.31a1.47 1.47 0 0 0-.07 2.21c1.4 1.25 4.37 2.38 4.8 1.83 3.1-3.97 4.82 1.02 8.01.55Zm54.88 26.59c-3.05 1.31-5.12 2.74-5.62 5.64-.24 1.35 0 2.82 1.59 3.14s2.41-.72 2.72-2.19c.37-1.91.74-3.82 1.29-6.59Zm-316.59 0c.62 2.59 1.25 4.6 1.54 6.65.19 1.36.55 2.37 2 2.14s1.77-1.48 1.67-2.68c-.25-3.07-2.74-4.24-5.23-6.11Zm-17.36-12.85c-1.54-3.42-2.55-7.22-7-10.17 1.42 5.18 3.58 8.13 6.98 10.17Zm-101.3-33.52c0 4.71 0 9.43 4.05 12.87-1.45-4.23-2.79-8.52-4.05-12.87Zm386.83 27.6 4.54 9.5c.8-4.32-.89-7.39-4.54-9.47Zm174.9 32.4a20.38 20.38 0 0 0 11.57 3Z"/><path fill="#6e615b" d="M353.13 101.7c-11.41-14.92-17-33.51-30.19-47.38a28.84 28.84 0 0 1-7.85-17.39c2 .25 2.12 1.34 2.28 2.29a21.62 21.62 0 0 0 4.66 10.37c11.39 13.43 19 29.22 28.2 44a52.79 52.79 0 0 0 12.82 14.49c1.05.79 4.21 1.44 1.31 3.81a47.46 47.46 0 0 1-11.23-10.19ZM570.98 128.15c-7.18 3.7-6.79 10.08 1 16.87-3.11.15-5-.86-6.61-4.07-2.29-4.57-2-9 1.44-13l1.54-1.36 2.92.9q-.14.3-.29.66ZM520.28 128.84c3.15 8.7.59 15.21-7.42 16.79 4.07-3.17 7.19-6.18 7.09-11.06a6.14 6.14 0 0 0-3.59-5.48l-1.38-1.76 3-.61c.82.7 1.57 1.41 2.3 2.12ZM93.97 63.61c-1.44-1.49-4.11-1.45-4.94-3.89 10.51 2.26 17.13 7.48 17 14.18-2.08-3.8-3.76-7.21-7.77-8.14ZM791.12 165.19c-6.84-11.29-19.13-15.17-29.64-21.4 13.46 2.76 26.41 12 29.64 21.4ZM763.59 83.88c-.21-3.86 1.76-4.26 3.42-4.8a15.9 15.9 0 0 1 7.9-.23c5.09.94 10.17 3.37 15.32-.4-2 3.51-4.75 4.57-8.28 3.8-2.76-.61-5.48-1.38-8.25-1.94-3.62-.73-6.81.48-10.11 3.57ZM807.44 78.09c5-5.76 13.81-7.2 16.72-15.32-1.53 9.57-10.2 11.32-16.72 15.32ZM812.2 132.79c-.22 1.2-1 2-2 1.16-4.6-3.46-9.71-6-14.78-8.75 6.49.52 11.58 4.12 16.76 7.52ZM296.15 78.84c4.39 2.53 8.72 1.69 13.1.38a18.13 18.13 0 0 1 9.36-.29c1.82.41 4.08.7 3.82 4.82-6-6.13-12.18-2.8-18.32-1.72-3.19.56-6.24.47-7.96-3.19ZM261.85 62.62c3.1 7.84 11.33 9.82 17.5 15.35-9.07-1.71-17.22-8.85-17.5-15.35ZM302.01 155.47c5.6-7.25 14.59-8.32 22.21-11.92-6.75 4.94-14.88 7.53-21.63 12.46a7.41 7.41 0 0 1-.58-.54ZM290.28 124.94c-5 3.56-10.83 5.62-15.86 9.13 3.99-5.28 9.86-7.42 15.86-9.13Z"/><path fill="#6e615b" d="m302.59 156.01-7.73 10-1.18-.89a23.15 23.15 0 0 1 8.33-9.69 7.41 7.41 0 0 0 .58.58ZM313.52 67.45c4.07 1.54 6.82 4.13 7.5 9.5l-8-8.9ZM53.49 113.48c-.6 0-1.95.1-2-1.14-.15-1.92 1.63-1.81 2.85-1.95 16.24-1.93 30.4-9.27 44.49-16.88a164.37 164.37 0 0 1 24.45-11.23A74.7 74.7 0 0 1 137.85 79c1-.13 2.2-.2 2.46 1.06s-.92 1.7-1.88 1.82c-22.47 2.83-40.37 16.66-60.51 25.11a88.47 88.47 0 0 1-24.43 6.49ZM1034.21 112.88c-6.49.55-12.51-.9-18.41-2.81-9.86-3.2-19-7.93-28.14-12.81-12.63-6.77-25.38-13.33-39.91-15.19-1.12-.14-2.8-.2-2.64-1.64.19-1.73 1.91-1.52 3.23-1.32a85.53 85.53 0 0 1 24.73 7.62c9.44 4.56 18.73 9.43 28 14.23a96.62 96.62 0 0 0 29.33 9.47c1.4.21 3.19-.3 3.81 2.45ZM668.7 127.45c9-4.71 13.12-13.09 17.06-21.52 2.53-5.42 4.68-11 8.17-15.92 2.35-3.31 4.82-6.64 9.51-7.4-10.93 8.08-13.47 21.17-19.75 32-2.42 4.17-5.07 8.21-9.06 11.12a8.46 8.46 0 0 1-5.93 1.72ZM670.92 91.6c-1.64-12.74-4.55-24.81-16.84-33.47 10.25 2.27 19.74 22 16.84 33.47ZM676.09 68.79c.52-2.89 2.68-5.32 1.71-8.47-.81-2.62-1.41-5.29-2.26-8.52 5 4.99 5.2 13.05.55 16.99ZM382.33 82.49c6.83 2 10.19 7.5 13.11 13.22 2.72 5.32 4.89 10.91 7.6 16.23 3.2 6.27 7.21 11.93 14.6 15-4.35.49-7.74-1.29-11-5.56a64.37 64.37 0 0 1-7.36-12.38c-4.39-9.6-7.55-19.96-16.95-26.51ZM415.02 91.99c-2.45-13 4.95-29 15.65-33.87-10.83 8.74-14.39 20.74-15.65 33.87ZM409.73 68.68c-5-4.39-4.67-11.28.64-16.75-1.47 5.51-3.73 11-.64 16.75ZM97.08 76.57C85.55 80.25 76.5 88.22 65.98 93.5c-11.88 6-24 6-36.31 1.36a13.9 13.9 0 0 1-2.65-1.38c-.33-.21-.46-.73-1-1.74 5.46 1.47 10.14 3.55 15.28 4a46.52 46.52 0 0 0 30.42-7.58 117.43 117.43 0 0 1 18.21-10.37c2.23-.93 4.45-2 7.15-1.22ZM988.47 76.56c3.83-.52 7.19.82 10.31 2.55 6.26 3.45 12.4 7.14 18.57 10.77 12.33 7.24 25.17 7.79 38.45 3 1.29-.47 2.55-1.74 4.67-.18-9.21 5.18-18.71 6.18-28.58 4.8-5.52-.77-10.47-3.21-15.32-5.85-9.29-5.05-17.58-12.01-28.1-15.09ZM361.28 40.52a35.51 35.51 0 0 0-3.34 28.27c-5.85-7.77-4.1-20.86 3.34-28.27ZM728.58 67.36c3.13-9.52.26-18.13-4-26.56 6.89 5.65 9 19.42 4 26.56Z"/></svg>